STARTFONT 2.1
COMMENT Created by fdbbdf
FONT apofic20
SIZE 20 78 78
FONTBOUNDINGBOX 30 29 -10 -10
STARTPROPERTIES 4
Ownership "  "
FONT_ASCENT 19
FONT_DESCENT 10
DEFAULT_CHAR 38
ENDPROPERTIES
CHARS 27
STARTCHAR &
ENCODING -1 38
SWIDTH 0 0
DWIDTH 20 0
BBX 20 20 -9 -10
BITMAP
80002000
00001000
00000000
00000000
00000000
00000000
00000000
00000000
00000000
00000000
00000000
00000000
00000000
00000000
00000000
00000000
00000000
00000000
80000000
20001000
ENDCHAR
STARTCHAR a
ENCODING -1 97
SWIDTH 0 0
DWIDTH 20 0
BBX 20 15 0 -10
BITMAP
07fe0000
18018000
21f84000
46062000
84021000
82041000
fe07f000
10008000
11488000
20004000
41282000
80001000
f949f000
80001000
fffff000
ENDCHAR
STARTCHAR b
ENCODING -1 98
SWIDTH 0 0
DWIDTH 20 0
BBX 20 16 -10 -8
BITMAP
00180000
00240000
00420000
00910000
01288000
12444000
34282000
7c311000
fc5a1000
7ccc2000
32574000
11338000
00810000
00420000
00240000
00180000
ENDCHAR
STARTCHAR c
ENCODING -1 99
SWIDTH 0 0
DWIDTH 20 0
BBX 14 20 -7 -10
BITMAP
0f80
30e0
6030
c018
c008
400c
000c
000c
0008
0010
0060
03c0
0600
0600
0600
0600
0600
0000
0600
0600
ENDCHAR
STARTCHAR d
ENCODING -1 100
SWIDTH 0 0
DWIDTH 20 0
BBX 20 12 -9 2
BITMAP
7f000000
80800000
807fe000
80001000
80001000
80001000
80001000
80001000
80001000
80001000
80001000
7fffe000
ENDCHAR
STARTCHAR e
ENCODING -1 101
SWIDTH 0 0
DWIDTH 20 0
BBX 20 12 -9 2
BITMAP
7f000000
ff800000
ffffe000
fffff000
fffff000
fffff000
fffff000
fffff000
fffff000
fffff000
fffff000
7fffe000
ENDCHAR
STARTCHAR f
ENCODING -1 102
SWIDTH 0 0
DWIDTH 20 0
BBX 19 20 -9 -1
BITMAP
fff00000
80100000
80100000
9fff0000
90010000
90010000
93ffe000
92002000
92002000
92002000
92002000
92002000
92002000
92002000
f2002000
12002000
12002000
1e002000
02002000
03ffe000
ENDCHAR
STARTCHAR g
ENCODING -1 103
SWIDTH 0 0
DWIDTH 20 0
BBX 20 16 -9 2
BITMAP
00600000
00900000
00480000
00240000
00130000
0028c000
7fc45000
80043000
7ce23000
04023000
07f03000
02103000
03c07000
02309000
01831000
007c0000
ENDCHAR
STARTCHAR h
ENCODING -1 104
SWIDTH 0 0
DWIDTH 20 0
BBX 20 17 -9 0
BITMAP
00700000
018e0000
06030000
08f88000
33066000
46031000
c4711000
88f89000
88f89000
c8f89000
48709000
44012000
23066000
20f84000
10018000
0c060000
03f80000
ENDCHAR
STARTCHAR i
ENCODING -1 105
SWIDTH 0 0
DWIDTH 20 0
BBX 20 17 -9 0
BITMAP
00700000
38f8e000
7c88e000
fffff000
80001000
80701000
84f81000
898c1000
998c1000
918cd000
80f8d000
80701000
80051000
80001000
fffff000
88011000
fffff000
ENDCHAR
STARTCHAR j
ENCODING -1 106
SWIDTH 0 0
DWIDTH 20 0
BBX 17 20 -7 -1
BITMAP
1f800000
0b000000
0bc00000
0a300000
0b880000
0a460000
0a610000
0a218000
0e308000
04788000
00488000
00788000
7fb18000
7fc10000
06060000
03880000
00cc0000
3fc20000
40010000
ffff8000
ENDCHAR
STARTCHAR k
ENCODING -1 107
SWIDTH 0 0
DWIDTH 20 0
BBX 19 19 -9 -1
BITMAP
00008000
00014000
00022000
00054000
000a8000
00110000
00220000
00440000
00880000
01100000
02200000
04400000
08800000
11000000
36000000
44000000
58000000
f0000000
c0000000
ENDCHAR
STARTCHAR l
ENCODING -1 108
SWIDTH 0 0
DWIDTH 20 0
BBX 18 20 -7 -1
BITMAP
03000000
06c00000
08700000
8c100000
70600000
00c00000
0ff80000
10058000
1007c000
10044000
10044000
10044000
10048000
10050000
10060000
10040000
10040000
10040000
10040000
0ff80000
ENDCHAR
STARTCHAR m
ENCODING -1 109
SWIDTH 0 0
DWIDTH 20 0
BBX 11 20 -5 -1
BITMAP
ffe0
8020
8020
8e20
8020
8020
ffe0
8020
8020
8020
8e20
8020
8020
ffe0
8020
8020
8e20
8020
8020
ffe0
ENDCHAR
STARTCHAR n
ENCODING -1 110
SWIDTH 0 0
DWIDTH 20 0
BBX 20 20 -9 -1
BITMAP
aaaaa000
00001000
80000000
00001000
80000000
00001000
80000000
00001000
80000000
00001000
80000000
00001000
80000000
00001000
80000000
00001000
80000000
00001000
80000000
55555000
ENDCHAR
STARTCHAR o
ENCODING -1 111
SWIDTH 0 0
DWIDTH 20 0
BBX 20 20 0 -1
BITMAP
aaaaa000
00001000
80000000
00001000
80000000
00001000
80000000
00001000
80000000
00001000
80000000
00001000
80000000
00001000
80000000
00001000
80000000
00001000
80000000
55555000
ENDCHAR
STARTCHAR p
ENCODING -1 112
SWIDTH 0 0
DWIDTH 20 0
BBX 20 20 -10 -10
BITMAP
aaaaa000
00001000
80000000
00001000
80000000
00001000
80000000
00001000
80000000
00001000
80000000
00001000
80000000
00001000
80000000
00001000
80000000
00001000
80000000
55555000
ENDCHAR
STARTCHAR q
ENCODING -1 113
SWIDTH 0 0
DWIDTH 20 0
BBX 20 20 -10 -10
BITMAP
aaaaa000
00001000
80000000
00001000
80000000
00001000
80000000
00001000
80000000
00001000
80000000
00001000
80000000
00001000
80000000
00001000
80000000
00001000
80000000
55555000
ENDCHAR
STARTCHAR r
ENCODING -1 114
SWIDTH 0 0
DWIDTH 20 0
BBX 20 20 -10 -10
BITMAP
aaaaa000
00001000
80000000
00001000
80000000
00001000
80000000
00001000
80000000
00001000
80000000
00001000
80000000
00001000
80000000
00001000
80000000
00001000
80000000
55555000
ENDCHAR
STARTCHAR s
ENCODING -1 115
SWIDTH 0 0
DWIDTH 20 0
BBX 20 20 -10 -10
BITMAP
aaaaa000
00001000
80000000
00001000
80000000
00001000
80000000
00001000
80000000
00001000
80000000
00001000
80000000
00001000
80000000
00001000
80000000
00001000
80000000
55555000
ENDCHAR
STARTCHAR t
ENCODING -1 116
SWIDTH 0 0
DWIDTH 20 0
BBX 20 20 -10 -10
BITMAP
aaaaa000
00001000
80000000
00001000
80000000
00001000
80000000
00001000
80000000
00001000
80000000
00001000
80000000
00001000
80000000
00001000
80000000
00001000
80000000
55555000
ENDCHAR
STARTCHAR u
ENCODING -1 117
SWIDTH 0 0
DWIDTH 20 0
BBX 20 20 -10 -10
BITMAP
aaaaa000
00001000
80000000
00001000
80000000
00001000
80000000
00001000
80000000
00001000
80000000
00001000
80000000
00001000
80000000
00001000
80000000
00001000
80000000
55555000
ENDCHAR
STARTCHAR v
ENCODING -1 118
SWIDTH 0 0
DWIDTH 20 0
BBX 20 20 -10 -10
BITMAP
aaaaa000
00001000
80000000
00001000
80000000
00001000
80000000
00001000
80000000
00001000
80000000
00001000
80000000
00001000
80000000
00001000
80000000
00001000
80000000
55555000
ENDCHAR
STARTCHAR w
ENCODING -1 119
SWIDTH 0 0
DWIDTH 20 0
BBX 20 20 -10 -10
BITMAP
aaaaa000
00001000
80000000
00001000
80000000
00001000
80000000
00001000
80000000
00001000
80000000
00001000
80000000
00001000
80000000
00001000
80000000
00001000
80000000
55555000
ENDCHAR
STARTCHAR x
ENCODING -1 120
SWIDTH 0 0
DWIDTH 20 0
BBX 20 20 -10 -10
BITMAP
aaaaa000
00001000
80000000
00001000
80000000
00001000
80000000
00001000
80000000
00001000
80000000
00001000
80000000
00001000
80000000
00001000
80000000
00001000
80000000
55555000
ENDCHAR
STARTCHAR y
ENCODING -1 121
SWIDTH 0 0
DWIDTH 20 0
BBX 20 20 -10 -10
BITMAP
aaaaa000
00001000
80000000
00001000
80000000
00001000
80000000
00001000
80000000
00001000
80000000
00001000
80000000
00001000
80000000
00001000
80000000
00001000
80000000
55555000
ENDCHAR
STARTCHAR z
ENCODING -1 122
SWIDTH 0 0
DWIDTH 20 0
BBX 20 20 -10 -10
BITMAP
aaaaa000
00001000
80000000
00001000
80000000
00001000
80000000
00001000
80000000
00001000
80000000
00001000
80000000
00001000
80000000
00001000
80000000
00001000
80000000
55555000
ENDCHAR
ENDFONT
